<svg xmlns="http://www.w3.org/2000/svg" viewBox="0 0 100 100">
  <path d="M 50 15 C 20 15 10 40 10 60 C 10 80 30 90 50 90 C 70 90 90 75 90 55 C 90 35 70 15 50 15 Z" fill="#e0c090" stroke="#a08060" stroke-width="2"/>
  <circle cx="35" cy="70" r="8" fill="#ffffff" stroke="#888" stroke-width="1"/>
  <circle cx="30" cy="40" r="6" fill="#ff0000"/>
  <circle cx="50" cy="30" r="6" fill="#00ff00"/>
  <circle cx="70" cy="45" r="6" fill="#0000ff"/>
  <circle cx="65" cy="65" r="6" fill="#ffff00"/>
  <path d="M 75 80 L 95 20 L 90 18 L 70 78 Z" fill="#8b4513" />
  <path d="M 95 20 C 100 10 90 5 90 18 Z" fill="#c0c0c0"/>
  <path d="M 90 5 C 85 0 80 10 88 15 Z" fill="#444"/>
</svg>
