<svg xmlns="http://www.w3.org/2000/svg" viewBox="0 0 100 100">
  <rect x="5" y="25" width="90" height="50" rx="4" fill="#333" stroke="#111" stroke-width="2"/>
  <rect x="5" y="25" width="90" height="15" fill="#555"/>
  <circle cx="15" cy="32" r="3" fill="#ff4040"/>
  <circle cx="25" cy="32" r="3" fill="#40ff40"/>
  <circle cx="35" cy="32" r="3" fill="#4040ff"/>
  <rect x="10" y="45" width="80" height="25" fill="#fff"/>
  <line x1="20" y1="45" x2="20" y2="70" stroke="#ccc" stroke-width="1"/>
  <line x1="30" y1="45" x2="30" y2="70" stroke="#ccc" stroke-width="1"/>
  <line x1="40" y1="45" x2="40" y2="70" stroke="#ccc" stroke-width="1"/>
  <line x1="50" y1="45" x2="50" y2="70" stroke="#ccc" stroke-width="1"/>
  <line x1="60" y1="45" x2="60" y2="70" stroke="#ccc" stroke-width="1"/>
  <line x1="70" y1="45" x2="70" y2="70" stroke="#ccc" stroke-width="1"/>
  <line x1="80" y1="45" x2="80" y2="70" stroke="#ccc" stroke-width="1"/>
  <rect x="16" y="45" width="8" height="14" fill="#000"/>
  <rect x="26" y="45" width="8" height="14" fill="#000"/>
  <rect x="46" y="45" width="8" height="14" fill="#000"/>
  <rect x="56" y="45" width="8" height="14" fill="#000"/>
  <rect x="66" y="45" width="8" height="14" fill="#000"/>
</svg>
